<svg height="512pt" viewBox="-74 0 512 512.00076" width="512pt" xmlns="http://www.w3.org/2000/svg"><path d="m254.949219 256.589844-.019531-.507813v-13.46875c0-20.175781-11.242188-37.714843-28.097657-46.4375 8.171875-9.902343 13.089844-22.589843 13.089844-36.402343 0-31.574219-25.6875-57.257813-57.257813-57.257813-31.574218 0-57.261718 25.683594-57.261718 57.257813 0 13.78125 4.894531 26.441406 13.035156 36.332031-16.929688 8.703125-28.234375 26.285156-28.234375 46.507812v12.804688l-.042969 1.171875c-.019531.472656-.003906.941406.042969 1.40625v29.617187c0 13.296875 10.820313 24.113281 24.113281 24.113281 1.375 0 2.71875-.117187 4.03125-.335937v83.835937c0 5.542969 4.492188 10.035157 10.039063 10.035157h68.355469c5.542968 0 10.039062-4.492188 10.039062-10.035157v-83.835937c1.304688.222656 2.644531.335937 4.007812.335937h.011719.015625c13.296875 0 24.109375-10.816406 24.109375-24.113281v-29.90625c.03125-.371093.035157-.746093.023438-1.117187zm-72.285157-134c20.503907 0 37.183594 16.679687 37.183594 37.183594 0 20.503906-16.683594 37.183593-37.183594 37.183593-20.503906 0-37.1875-16.679687-37.1875-37.183593 0-20.503907 16.683594-37.183594 37.1875-37.183594zm-48.347656 169.0625c-2.222656 0-4.035156-1.8125-4.035156-4.039063l.050781-30.355469c.003907-.347656-.015625-.699218-.050781-1.046874v-.398438l.5625-14.59375c.46875-12.210938 7.738281-23.214844 18.519531-28.039062 2.398438-1.074219 4.910157-1.84375 7.492188-2.296876 7.761719 3.933594 16.53125 6.152344 25.808593 6.152344 9.253907 0 18.003907-2.210937 25.75-6.125 2.527344.457032 4.984376 1.21875 7.335938 2.269532 10.777344 4.824218 18.046875 15.832031 18.519531 28.039062l.570313 14.886719c-.042969.382812-.0625.769531-.0625 1.152343l.054687 22.617188v7.738281c0 2.222657-1.804687 4.03125-4.027343 4.039063-2.21875-.007813-4.023438-1.816406-4.023438-4.039063v-29.554687c0-5.542969-4.492188-10.039063-10.035156-10.039063-5.546875 0-10.039063 4.496094-10.039063 10.039063v28.835937c-.007812.117188-.015625.230469-.019531.347657h-48.257812v-29.183594c0-5.542969-4.492188-10.039063-10.035157-10.039063-5.546875 0-10.039062 4.496094-10.039062 10.039063v29.554687c-.003907 2.226563-1.8125 4.039063-4.039063 4.039063zm58.285156 93.535156v-15.496094c0-5.542968-4.492187-10.039062-10.039062-10.039062-5.542969 0-10.035156 4.496094-10.035156 10.039062v15.496094h-14.105469v-77.867188h48.285156v77.867188zm0 0"/><path d="m202.019531 468.3125-9.414062 9.414062v-36.96875c0-5.542968-4.496094-10.039062-10.039063-10.039062-5.542968 0-10.039062 4.496094-10.039062 10.039062v37.742188l-9.136719-9.898438c-3.761719-4.070312-10.113281-4.328124-14.183594-.566406-4.074219 3.761719-4.328125 10.109375-.566406 14.183594l24.507813 26.554688c1.976562 2.140624 4.675781 3.226562 7.378906 3.226562.339844 0 .679687-.015625 1.019531-.050781.339844.035156.679687.050781 1.015625.050781 2.613281 0 5.179688-1.019531 7.101562-2.9375l26.550782-26.554688c3.917968-3.917968 3.917968-10.273437 0-14.195312-3.921875-3.917969-10.277344-3.917969-14.195313 0zm0 0"/><path d="m163.113281 43.6875 9.414063-9.417969v36.972657c0 5.542968 4.496094 10.039062 10.039062 10.039062 5.542969 0 10.039063-4.496094 10.039063-10.039062v-37.746094l9.136719 9.898437c1.976562 2.144531 4.671874 3.230469 7.378906 3.230469 2.433594 0 4.875-.878906 6.804687-2.660156 4.074219-3.761719 4.328125-10.113282.566407-14.183594l-24.507813-26.550781c-2.226563-2.414063-5.363281-3.488281-8.398437-3.1796878-2.953126-.3007812-5.949219.7187498-8.117188 2.8906248l-26.550781 26.550782c-3.921875 3.917968-3.921875 10.273437 0 14.195312 3.917969 3.917969 10.273437 3.917969 14.195312 0zm0 0"/><path d="m36.589844 287.699219c2.566406 0 5.136718-.980469 7.097656-2.9375 3.917969-3.921875 3.917969-10.277344 0-14.195313l-9.417969-9.417968h36.972657c5.542968 0 10.039062-4.492188 10.039062-10.035157 0-5.546875-4.496094-10.039062-10.039062-10.039062h-37.742188l9.898438-9.136719c4.074218-3.761719 4.328124-10.109375.566406-14.183594-3.761719-4.074218-10.109375-4.328125-14.183594-.566406l-26.550781 24.507812c-2.414063 2.226563-3.488281 5.363282-3.1796878 8.398438-.3007812 2.953125.7187498 5.949219 2.8906248 8.117188l26.550782 26.550781c1.960937 1.957031 4.527343 2.9375 7.097656 2.9375zm0 0"/><path d="m361.402344 244.015625-26.550782-26.550781c-3.921874-3.921875-10.277343-3.921875-14.195312 0-3.921875 3.917968-3.921875 10.273437 0 14.195312l9.414062 9.414063h-36.972656c-5.542968 0-10.035156 4.492187-10.035156 10.039062 0 5.542969 4.492188 10.035157 10.035156 10.035157h37.746094l-9.898438 9.136718c-4.074218 3.761719-4.328124 10.113282-.570312 14.1875 1.980469 2.140625 4.675781 3.226563 7.378906 3.226563 2.4375 0 4.875-.878907 6.808594-2.660157l26.550781-24.507812c2.414063-2.226562 3.484375-5.363281 3.175781-8.398438.300782-2.953124-.71875-5.949218-2.886718-8.117187zm0 0"/><path d="m293.667969 134.515625c2.570312 0 5.140625-.980469 7.097656-2.941406l26.6875-26.6875-.535156 13.460937c-.222657 5.539063 4.085937 10.207032 9.625 10.429688.140625.003906.273437.007812.410156.007812 5.359375 0 9.804687-4.234375 10.023437-9.636718l1.441407-36.101563c.132812-3.285156-1.328125-6.261719-3.691407-8.191406-1.875-2.296875-4.714843-3.695313-7.78125-3.695313h-37.546874c-5.546876 0-10.039063 4.496094-10.039063 10.039063s4.492187 10.039062 10.039063 10.039062h13.316406l-26.144532 26.140625c-3.917968 3.921875-3.917968 10.277344 0 14.195313 1.960938 1.960937 4.527344 2.941406 7.097657 2.941406zm0 0"/><path d="m65.191406 340.203125-26.6875 26.6875.535156-13.460937c.222657-5.539063-4.089843-10.207032-9.628906-10.429688-5.53125-.207031-10.207031 4.089844-10.429687 9.628906l-1.445313 36.105469c-.128906 3.277344 1.328125 6.253906 3.691406 8.183594 1.875 2.300781 4.714844 3.699219 7.785157 3.699219h37.546875c5.542968 0 10.039062-4.496094 10.039062-10.039063s-4.496094-10.035156-10.039062-10.035156h-13.316406l26.144531-26.144531c3.917969-3.921876 3.917969-10.277344 0-14.195313-3.921875-3.921875-10.273438-3.921875-14.195313 0zm0 0"/><path d="m337.667969 343.304688c-5.542969 0-10.039063 4.496093-10.039063 10.039062v13.316406l-26.140625-26.144531c-3.921875-3.917969-10.277343-3.917969-14.195312 0-3.921875 3.921875-3.921875 10.277344 0 14.195313l26.6875 26.6875-13.460938-.535157c-5.527343-.183593-10.210937 4.089844-10.429687 9.628907-.222656 5.539062 4.085937 10.207031 9.628906 10.429687l36.101562 1.445313c.136719.003906.273438.007812.410157.007812 3.117187 0 5.925781-1.433594 7.773437-3.695312 2.300782-1.875 3.699219-4.71875 3.699219-7.789063v-37.546875c.003906-5.542969-4.492187-10.039062-10.035156-10.039062zm0 0"/><path d="m28.289062 130.542969c5.542969 0 10.039063-4.492188 10.039063-10.035157v-13.316406l26.140625 26.140625c1.960938 1.960938 4.53125 2.941407 7.097656 2.941407 2.570313 0 5.140625-.980469 7.097656-2.941407 3.921876-3.917969 3.921876-10.273437 0-14.195312l-26.6875-26.6875 13.460938.535156c.136719.007813.269531.011719.40625.011719 5.359375 0 9.808594-4.234375 10.023438-9.640625.222656-5.535157-4.089844-10.207031-9.628907-10.429688l-36.105469-1.441406c-3.273437-.128906-6.242187 1.328125-8.171874 3.679687-2.308594 1.875-3.710938 4.71875-3.710938 7.792969v37.546875c.003906 5.546875 4.496094 10.039063 10.039062 10.039063zm0 0"/><path d="m185.679688 321.039062-.242188-.070312c-5.308594-1.601562-10.90625 1.402344-12.507812 6.710938-1.597657 5.308593 1.40625 10.90625 6.714843 12.507812l.242188.074219c.964843.289062 1.941406.429687 2.898437.429687 4.3125 0 8.300782-2.804687 9.609375-7.144531 1.597657-5.308594-1.40625-10.90625-6.714843-12.507813zm0 0"/></svg>